<?xml version="1.0" encoding="utf-8"?>
<!-- Generated by IcoMoon.io -->
<!DOCTYPE svg PUBLIC "-//W3C//DTD SVG 1.1//EN" "http://www.w3.org/Graphics/SVG/1.1/DTD/svg11.dtd">
<svg version="1.1" xmlns="http://www.w3.org/2000/svg" xmlns:xlink="http://www.w3.org/1999/xlink" width="512" height="512" viewBox="0 0 512 512">
<g id="icomoon-ignore">
	<line stroke-width="1" x1="" y1="" x2="" y2="" stroke="#449FDB" opacity=""></line>
</g>
	<path d="M0 438.857v-365.714q0-15.143 10.714-25.857t25.857-10.715h438.857q15.143 0 25.857 10.715t10.715 25.857v365.714q0 15.143-10.714 25.857t-25.857 10.714h-438.857q-15.143 0-25.857-10.714t-10.714-25.857zM36.572 438.857h438.857v-36.572h-438.857v36.572zM36.572 146.286h438.857v-73.143h-236.571l-18.285 36.572h-184v36.572zM73.143 91.428h109.715v-36.572h-109.715v36.572zM146.286 274.857q0 45.428 32.143 77.572t77.571 32.143 77.572-32.143 32.143-77.572-32.143-77.572-77.572-32.143-77.572 32.143-32.143 77.572zM182.857 274.857q0-30.286 21.429-51.714t51.714-21.428 51.714 21.428 21.428 51.714-21.428 51.714-51.714 21.428-51.714-21.428-21.428-51.714zM210.286 274.286q0 4 2.571 6.572t6.571 2.572 6.572-2.572 2.571-6.572q0-11.428 8-19.428t19.429-8q4 0 6.572-2.571t2.572-6.571-2.572-6.572-6.572-2.571q-18.857 0-32.286 13.429t-13.428 32.286z" fill="#000000"></path>
</svg>
