<?xml version="1.0" encoding="utf-8"?>
<!-- Generated by IcoMoon.io -->
<!DOCTYPE svg PUBLIC "-//W3C//DTD SVG 1.1//EN" "http://www.w3.org/Graphics/SVG/1.1/DTD/svg11.dtd">
<svg version="1.1" xmlns="http://www.w3.org/2000/svg" xmlns:xlink="http://www.w3.org/1999/xlink" width="512" height="512" viewBox="0 0 512 512">
<g id="icomoon-ignore">
	<line stroke-width="1" x1="" y1="" x2="" y2="" stroke="#449FDB" opacity=""></line>
</g>
	<path d="M0 393.143v-274.286q0-34 24.143-58.143t58.143-24.143h274.286q34 0 58.143 24.143t24.143 58.143v274.286q0 34-24.143 58.143t-58.143 24.143h-54.857v-173.714h58l8.572-64h-66.572v-40.857q0-15.429 8-23.715t27.428-8.286l37.714-0.286v-59.143q-27.428-2.572-51.428-2.572-38.857 0-62.286 23t-23.428 64.428v47.428h-64v64h64v173.714h-155.429q-34 0-58.143-24.143t-24.143-58.143z" fill="#000000"></path>
</svg>
