<?xml version="1.0" encoding="utf-8"?>
<!-- Generated by IcoMoon.io -->
<!DOCTYPE svg PUBLIC "-//W3C//DTD SVG 1.1//EN" "http://www.w3.org/Graphics/SVG/1.1/DTD/svg11.dtd">
<svg version="1.1" xmlns="http://www.w3.org/2000/svg" xmlns:xlink="http://www.w3.org/1999/xlink" width="512" height="512" viewBox="0 0 512 512">
<g id="icomoon-ignore">
</g>
<path d="M232.883 186.496c-6.169-21.76-16.154-28.185-31.693-28.185-1.664 0-3.353 0.231-4.966 0.666-6.758 1.92-12.083 7.552-15.053 15.872-3.047 8.448-3.251 17.28-0.589 27.315 4.71 17.92 17.459 30.951 30.336 30.951 1.664 0 3.353-0.231 4.966-0.666 14.003-3.968 22.81-25.421 16.999-45.952zM256 10.24c-135.731 0-245.76 110.029-245.76 245.76s110.029 245.76 245.76 245.76c135.757 0 245.76-110.029 245.76-245.76s-110.003-245.76-245.76-245.76zM241.843 361.523c-15.463 7.501-32.077 8.294-38.502 8.294-1.229 0-1.92-0.026-2.023-0.026 0 0-0.487 0-1.255 0-10.035 0-59.981-2.304-59.981-47.795 0-44.697 54.375-48.179 71.040-48.179h0.461c-9.6-12.851-7.603-25.805-7.603-25.805-0.845 0.051-2.099 0.102-3.609 0.102-6.298 0-18.406-0.999-28.8-7.731-12.723-8.167-19.174-22.119-19.174-41.446 0-54.553 59.546-56.755 60.16-56.781h59.469v1.305c0 6.656-11.93 7.936-20.096 9.063-2.765 0.384-8.294 0.947-9.881 1.741 15.078 8.038 17.511 20.71 17.511 39.552 0 21.427-8.397 32.768-17.305 40.755-5.504 4.915-9.856 8.832-9.856 14.003 0 5.069 5.939 10.291 12.851 16.358 11.289 9.933 26.777 23.526 26.777 46.361 0 23.603-10.163 40.499-30.183 50.227zM371.891 255.769h-38.81v38.81h-24.576v-38.81h-38.81v-24.576h38.81v-38.784h24.576v38.809h38.81v24.55zM210.509 285.466c-1.331 0-2.662 0.051-3.994 0.154-11.367 0.819-21.863 5.094-29.465 12.007-7.526 6.81-11.341 15.385-10.803 24.089 1.126 18.176 20.685 28.851 44.391 27.136 23.373-1.69 38.938-15.13 37.786-33.331-1.101-17.127-15.975-30.055-37.913-30.055z" fill="#000000"></path>
</svg>
