<?xml version="1.0" encoding="utf-8"?>
<!-- Generated by IcoMoon.io -->
<!DOCTYPE svg PUBLIC "-//W3C//DTD SVG 1.1//EN" "http://www.w3.org/Graphics/SVG/1.1/DTD/svg11.dtd">
<svg version="1.1" xmlns="http://www.w3.org/2000/svg" xmlns:xlink="http://www.w3.org/1999/xlink" width="512" height="512" viewBox="0 0 512 512">
<g id="icomoon-ignore">
	<line stroke-width="1" x1="" y1="" x2="" y2="" stroke="#449FDB" opacity=""></line>
</g>
	<path d="M0 393.143v-274.286q0-34 24.143-58.143t58.143-24.143h274.286q34 0 58.143 24.143t24.143 58.143v274.286q0 34-24.143 58.143t-58.143 24.143h-274.286q-34 0-58.143-24.143t-24.143-58.143zM78.857 350.572q0 12.286 5.285 22.143t13.857 16.143 19.715 10.572 22.143 6 21.857 1.714q17.143 0 34.428-4.428t32.428-13.143 24.572-23.572 9.428-33.428q0-14-5.714-25.572t-14-19-16.572-13.572-14-12.572-5.714-12.714 4.428-12.143 10.714-11.286 12.572-12 10.714-17 4.428-23.571q0-17.143-6.428-28.428t-20.714-25.857h23.714l25.143-18.285h-75.714q-24.286 0-46 9.143t-36.428 28-14.715 43.714q0 26.572 18.428 44.143t45.285 17.571q6.286 0 12.286-0.857-3.714 8.286-3.714 15.429 0 12.572 11.429 26.857-50 3.428-73.428 18-13.428 8.286-21.572 20.857t-8.143 27.143zM112.857 342.286q0-13.143 7.143-22.857t18.714-14.714 23.428-7.143 24.143-2.143q5.714 0 8.857 0.572 0.571 0.286 6.572 4.714t7.428 5.428 6.572 5.143 7 6.286 5.428 6.428 4.857 7.428 2.571 7.572 1.286 9q0 21.714-16.714 32.143t-39.857 10.428q-11.714 0-23-2.714t-21.571-8.143-16.572-15.143-6.285-22.286zM132 162q0-17.428 9.143-29.714t26.285-12.285q15.143 0 26.714 12.857t16.572 28.857 5 30.571q0 17.143-9.428 28.428t-26.286 11.286q-15.143 0-26.572-12.143t-16.428-27.571-5-30.286zM274.286 246.857h36.572v45.715h18.286v-45.714h36.572v-18.286h-36.572v-36.572h-18.286v36.572h-36.572v18.286z" fill="#000000"></path>
</svg>
