<?xml version="1.0" encoding="utf-8"?>
<!-- Generated by IcoMoon.io -->
<!DOCTYPE svg PUBLIC "-//W3C//DTD SVG 1.1//EN" "http://www.w3.org/Graphics/SVG/1.1/DTD/svg11.dtd">
<svg version="1.1" xmlns="http://www.w3.org/2000/svg" xmlns:xlink="http://www.w3.org/1999/xlink" width="512" height="512" viewBox="0 0 512 512">
<g id="icomoon-ignore">
</g>
<path d="M256 10.24c-135.731 0-245.76 110.029-245.76 245.76s110.029 245.76 245.76 245.76 245.76-110.029 245.76-245.76-110.029-245.76-245.76-245.76zM195.84 357.863h-49.767v-160.128h49.767v160.128zM170.649 178.073c-15.719 0-25.881-11.161-25.881-24.909 0-14.080 10.47-24.883 26.522-24.883s25.881 10.803 26.189 24.883c0.025 13.773-10.137 24.909-26.829 24.909zM377.575 357.863h-49.741v-88.755c0-20.633-7.219-34.688-25.216-34.688-13.747 0-21.913 9.498-25.549 18.662-1.305 3.251-1.639 7.859-1.639 12.416v92.339h-49.792v-109.056c0-19.968-0.64-36.685-1.305-51.072h43.213l2.304 22.246h0.973c6.553-10.47 22.605-25.856 49.459-25.856 32.743 0 57.293 21.913 57.293 69.069v94.695z" fill="#000000"></path>
</svg>
