<?xml version="1.0" encoding="utf-8"?>
<!-- Generated by IcoMoon.io -->
<!DOCTYPE svg PUBLIC "-//W3C//DTD SVG 1.1//EN" "http://www.w3.org/Graphics/SVG/1.1/DTD/svg11.dtd">
<svg version="1.1" xmlns="http://www.w3.org/2000/svg" xmlns:xlink="http://www.w3.org/1999/xlink" width="512" height="512" viewBox="0 0 512 512">
<g id="icomoon-ignore">
	<line stroke-width="1" x1="" y1="" x2="" y2="" stroke="#449FDB" opacity=""></line>
</g>
	<path d="M0 393.143v-274.286q0-34 24.143-58.143t58.143-24.143h274.286q34 0 58.143 24.143t24.143 58.143v274.286q0 34-24.143 58.143t-58.143 24.143h-274.286q-34 0-58.143-24.143t-24.143-58.143zM63.715 144.571q0 14.571 10.143 24.429t26.428 9.857h0.285q16.857 0 27.143-9.857t10.285-24.428q-0.286-14.857-10.285-24.572t-26.572-9.715-27 9.715-10.428 24.572zM67.715 404h66v-198.286h-66v198.286zM170 404h66v-110.857q0-10.857 2-16 4.286-10 12.857-17t21.143-7q33.143 0 33.143 44.857v106h66v-113.714q0-44-20.857-66.572t-55.143-22.572q-38.857 0-59.714 33.428h0.571v-28.857h-66q0.857 18.857 0 198.286z" fill="#000000"></path>
</svg>
