<?xml version="1.0" encoding="utf-8"?>
<!-- Generated by IcoMoon.io -->
<!DOCTYPE svg PUBLIC "-//W3C//DTD SVG 1.1//EN" "http://www.w3.org/Graphics/SVG/1.1/DTD/svg11.dtd">
<svg version="1.1" xmlns="http://www.w3.org/2000/svg" xmlns:xlink="http://www.w3.org/1999/xlink" width="512" height="512" viewBox="0 0 512 512">
<g id="icomoon-ignore">
</g>
<path d="M256 10.24c-135.731 0-245.76 110.029-245.76 245.76s110.029 245.76 245.76 245.76 245.76-110.029 245.76-245.76-110.029-245.76-245.76-245.76zM272.793 314.265c-15.744-1.229-22.349-9.037-34.688-16.538-6.81 35.635-15.078 69.786-39.68 87.603-7.577-53.837 11.161-94.259 19.84-137.165-14.822-24.934 1.792-75.162 33.049-62.797 38.477 15.232-33.331 92.774 14.873 102.477 50.329 10.112 70.861-87.322 39.654-118.989-45.082-45.747-131.226-1.049-120.627 64.461 2.585 16.025 19.097 20.864 6.605 42.983-28.851-6.4-37.478-29.159-36.352-59.495 1.792-49.69 44.621-84.454 87.577-89.293 54.349-6.067 105.344 19.942 112.409 71.065 7.911 57.728-24.55 120.192-82.663 115.687z" fill="#000000"></path>
</svg>
