<?xml version="1.0" encoding="utf-8"?>
<!-- Generated by IcoMoon.io -->
<!DOCTYPE svg PUBLIC "-//W3C//DTD SVG 1.1//EN" "http://www.w3.org/Graphics/SVG/1.1/DTD/svg11.dtd">
<svg version="1.1" xmlns="http://www.w3.org/2000/svg" xmlns:xlink="http://www.w3.org/1999/xlink" width="512" height="512" viewBox="0 0 512 512">
<g id="icomoon-ignore">
	<line stroke-width="1" x1="" y1="" x2="" y2="" stroke="#449FDB" opacity=""></line>
</g>
	<path d="M0 393.143v-274.286q0-34 24.143-58.143t58.143-24.143h274.286q34 0 58.143 24.143t24.143 58.143v274.286q0 34-24.143 58.143t-58.143 24.143h-207.143q24.285-34.857 30.857-60 2.571-9.714 15.143-59.714 6 11.143 21 19.143t32.143 8q51.714 0 84.428-42.143t32.714-106.714q0-24-10-46.428t-27.572-39.714-43.572-27.715-56.286-10.428q-29.714 0-55.572 8.143t-43.714 21.857-30.715 31.285-19 36.572-6.143 37.857q0 29.143 11.285 51.429t33.285 31.428q3.715 1.428 6.715 0t4.143-5.428q2.857-12.572 4.286-17.428 1.714-6.572-3.143-12-14.285-17.714-14.285-42.857 0-42.857 29.572-73.285t77.286-30.428q42.572 0 66.428 23.143t23.857 60q0 48-19.286 81.715t-49.572 33.714q-17.143 0-27.714-12.428t-6.572-29.572q2.286-9.714 7.572-26.428t8.428-29.143 3.143-21.285q0-14-7.571-23.286t-21.572-9.286q-17.428 0-29.572 16.143t-12.143 39.857q0 20.572 6.857 34.572l-28 118.286q-6.857 28.572-2 72.572h-52.285q-34 0-58.143-24.143t-24.143-58.143z" fill="#000000"></path>
</svg>
