<?xml version="1.0" encoding="utf-8"?>
<!-- Generated by IcoMoon.io -->
<!DOCTYPE svg PUBLIC "-//W3C//DTD SVG 1.1//EN" "http://www.w3.org/Graphics/SVG/1.1/DTD/svg11.dtd">
<svg version="1.1" xmlns="http://www.w3.org/2000/svg" xmlns:xlink="http://www.w3.org/1999/xlink" width="476" height="512" viewBox="0 0 476 512">
<g id="icomoon-ignore">
	<line stroke-width="1" x1="" y1="" x2="" y2="" stroke="#449FDB" opacity=""></line>
</g>
	<path d="M10.286 306.286l64-109.714q2.857-4 7.428-4.572l108.286-5.714q27.428-32.572 50.286-55.714 53.714-53.428 102.286-73.715t123.143-20.285q4 0 6.857 2.715t2.857 6.428q0 71.143-21.572 123t-72.428 103q-23.143 22.857-55.714 50.286l-5.714 108.286q-0.572 4.572-4.572 7.428l-109.714 64q-2 1.143-4.572 1.143-3.429 0-6.572-2.572l-18.286-18.286q-3.714-4-2.286-9.143l24.286-78.857-80.285-80.286-78.857 24.286q-0.857 0.286-2.572 0.286-4 0-6.572-2.572l-18.285-18.286q-4.857-5.428-1.428-11.143zM356.572 128q0 11.428 8 19.428t19.428 8 19.428-8 8-19.428-8-19.428-19.428-8-19.428 8-8 19.428z" fill="#000000"></path>
</svg>
