<?xml version="1.0" encoding="utf-8"?>
<!-- Generated by IcoMoon.io -->
<!DOCTYPE svg PUBLIC "-//W3C//DTD SVG 1.1//EN" "http://www.w3.org/Graphics/SVG/1.1/DTD/svg11.dtd">
<svg version="1.1" xmlns="http://www.w3.org/2000/svg" xmlns:xlink="http://www.w3.org/1999/xlink" width="512" height="512" viewBox="0 0 512 512">
<g id="icomoon-ignore">
	<line stroke-width="1" x1="" y1="" x2="" y2="" stroke="#449FDB" opacity=""></line>
</g>
	<path d="M0 310.857v-109.714q0-7.428 5.428-12.857t12.857-5.429h128v-82.285q0-7.428 5.428-12.857t12.857-5.428 12.857 5.428l155.428 155.428q5.428 5.428 5.428 12.857t-5.428 12.857l-155.429 155.428q-5.429 5.428-12.857 5.428t-12.857-5.428-5.429-12.857v-82.286h-128q-7.428 0-12.857-5.428t-5.428-12.857zM255.571 416.428q0.143-3 0.857-6.714t2.857-5.572 5.857-1.857h91.428q18.857 0 32.286-13.428t13.428-32.286v-201.143q0-18.857-13.428-32.285t-32.286-13.428h-89.143t-3.286-0.285-3.286-0.857-2.286-1.572-2-2.572-0.571-3.857q0-1.143-0.286-5.715t-0.143-7.572 0.857-6.715 2.857-5.572 5.857-1.857h91.428q34 0 58.143 24.143t24.143 58.143v201.143q0 34-24.143 58.143t-58.143 24.143h-91.428q-3.714 0-6.428-2.714t-2.714-6.428q0-1.143-0.286-5.714t-0.143-7.572z" fill="#000000"></path>
</svg>
