<?xml version="1.0" encoding="utf-8"?>
<!-- Generated by IcoMoon.io -->
<!DOCTYPE svg PUBLIC "-//W3C//DTD SVG 1.1//EN" "http://www.w3.org/Graphics/SVG/1.1/DTD/svg11.dtd">
<svg version="1.1" xmlns="http://www.w3.org/2000/svg" xmlns:xlink="http://www.w3.org/1999/xlink" width="512" height="512" viewBox="0 0 512 512">
<g id="icomoon-ignore">
</g>
<path d="M256 10.24c-135.731 0-245.76 110.029-245.76 245.76s110.029 245.76 245.76 245.76 245.76-110.029 245.76-245.76-110.029-245.76-245.76-245.76zM355.942 211.584c0.103 2.073 0.154 4.173 0.154 6.272 0 63.949-48.691 137.702-137.728 137.702-27.315 0-52.787-7.987-74.189-21.76 3.789 0.461 7.655 0.666 11.546 0.666 22.681 0 43.546-7.731 60.135-20.736-21.171-0.384-39.066-14.387-45.235-33.587 2.944 0.563 5.99 0.87 9.088 0.87 4.429 0 8.704-0.589 12.749-1.69-22.119-4.454-38.835-24.013-38.835-47.463 0-0.205 0-0.41 0.025-0.589 6.528 3.609 14.003 5.786 21.913 6.042-12.953-8.678-21.504-23.475-21.504-40.294 0-8.883 2.381-17.203 6.554-24.345 23.859 29.312 59.546 48.589 99.763 50.585-0.819-3.533-1.255-7.219-1.255-11.034 0-26.727 21.683-48.41 48.409-48.41 13.926 0 26.496 5.863 35.328 15.283 11.034-2.15 21.401-6.169 30.745-11.725-3.635 11.29-11.289 20.787-21.299 26.778 9.805-1.178 19.123-3.763 27.801-7.629-6.477 9.702-14.72 18.227-24.166 25.063z" fill="#000000"></path>
</svg>
