<?xml version="1.0" encoding="utf-8"?>
<!-- Generated by IcoMoon.io -->
<!DOCTYPE svg PUBLIC "-//W3C//DTD SVG 1.1//EN" "http://www.w3.org/Graphics/SVG/1.1/DTD/svg11.dtd">
<svg version="1.1" xmlns="http://www.w3.org/2000/svg" xmlns:xlink="http://www.w3.org/1999/xlink" width="512" height="512" viewBox="0 0 512 512">
<g id="icomoon-ignore">
	<line stroke-width="1" x1="" y1="" x2="" y2="" stroke="#449FDB" opacity=""></line>
</g>
	<path d="M0 393.143v-274.286q0-34 24.143-58.143t58.143-24.143h274.286q34 0 58.143 24.143t24.143 58.143v274.286q0 34-24.143 58.143t-58.143 24.143h-274.286q-34 0-58.143-24.143t-24.143-58.143zM73.143 357.143q42.285 26.857 92 26.857 32 0 60-10.143t48-27.143 34.428-39.143 21.428-46.286 7-48.143q0-5.143-0.286-7.714 18-12.857 30-31.143-16 7.143-34.572 9.714 19.428-11.428 26.572-33.428-18.572 10.857-38.286 14.572-17.428-18.857-43.714-18.857-24.857 0-42.428 17.571t-17.572 42.428q0 8.286 1.429 13.714-36.857-2-69.143-18.572t-54.857-44.286q-8.285 14.286-8.285 30.286 0 32.572 26 50-13.428-0.286-28.572-7.428v0.571q0 21.429 14.285 38.143t35.143 20.714q-8.285 2.286-14.572 2.286-3.715 0-11.143-1.143 6 18 21.285 29.714t34.715 12q-33.143 25.714-74.572 25.714-7.428 0-14.285-0.857z" fill="#000000"></path>
</svg>
